# xmcd
#
# Track frame offsets:
#	150
#	11675
#	23500
#	35825
#	49075
#	59325
#	73375
#	86812
#	97325
#	111750
#	121562
#	134912
#	146087
#	160450
#	174100
#	188275
#
# Disc length: 2657 seconds
#
# Revision: 1
# Processed by: cddbd v1.4b42PL1 Copyright (c) Steve Scherf et al.
# Submitted via: audiograbber 1.80
#
DISCID=e30a5f10
DTITLE=Various Artist - You Must Remember This
DYEAR=1900
DGENRE=
TTITLE0=Blue Skies
TTITLE1=I'm Sitting On Top Of The World
TTITLE2=I Wanna Be Loved By You
TTITLE3=Aint She Sweet
TTITLE4=My Blue Heaven
TTITLE5=Side By Side
TTITLE6=Blue Moon
TTITLE7=Singing in The Rain
TTITLE8=Night And Day
TTITLE9=Zing! Went The Strings Of My Heart
TTITLE10=Lovely To Look At
TTITLE11=Makin' Whoopee
TTITLE12=Ain't Misbehaving
TTITLE13=Rockin Chair
TTITLE14=My Mammy
TTITLE15=Dancing In The Dark
EXTD=
EXTT0=
EXTT1=
EXTT2=
EXTT3=
EXTT4=
EXTT5=
EXTT6=
EXTT7=
EXTT8=
EXTT9=
EXTT10=
EXTT11=
EXTT12=
EXTT13=
EXTT14=
EXTT15=
PLAYORDER=
